<svg width="26" height="18" viewBox="0 0 26 18" fill="none" xmlns="http://www.w3.org/2000/svg">
<path d="M8.5 8.49963V9.49963L0.5 9.49963L0.5 8.49963L8.5 8.49963Z" fill="#089BDF"/>
<path d="M13 8.49963C13.2761 8.49963 13.5 8.72349 13.5 8.99963C13.5 9.27578 13.2761 9.49963 13 9.49963C12.7239 9.49963 12.5 9.27578 12.5 8.99963C12.5 8.72349 12.7239 8.49963 13 8.49963Z" fill="#089BDF"/>
<path d="M25.5 8.49963V9.49963L17.5 9.49963V8.49963L25.5 8.49963Z" fill="#089BDF"/>
<g opacity="0.2">
<path d="M9.65723 11.4756L10.3643 12.1826L4.70703 17.8389L4 17.1318L9.65723 11.4756Z" fill="#089BDF"/>
<path d="M16.0205 11.4746L21.6777 17.1318L20.9707 17.8389L15.3135 12.1816L16.0205 11.4746Z" fill="#089BDF"/>
<path d="M4.70703 0.161133L10.3643 5.81836L9.65723 6.52539L4 0.868164L4.70703 0.161133Z" fill="#089BDF"/>
<path d="M20.9707 0.161133L21.6777 0.868164L16.0205 6.52441L15.3135 5.81738L20.9707 0.161133Z" fill="#089BDF"/>
</g>
</svg>
